<svg width="1200" height="800" viewBox="0 0 1200 800" xmlns="http://www.w3.org/2000/svg">
  <defs>
    <linearGradient id="bedroomWalls" x1="0%" y1="0%" x2="0%" y2="100%">
      <stop offset="0%" style="stop-color:#3a2a4a;stop-opacity:1" />
      <stop offset="100%" style="stop-color:#1a1a2a;stop-opacity:1" />
    </linearGradient>
    <radialGradient id="softGlow" cx="20%" cy="30%" r="25%">
      <stop offset="0%" style="stop-color:#ffcc88;stop-opacity:0.6" />
      <stop offset="100%" style="stop-color:#ffcc88;stop-opacity:0" />
    </radialGradient>
  </defs>
  
  <!-- Background -->
  <rect width="1200" height="800" fill="url(#bedroomWalls)"/>
  
  <!-- Floor -->
  <rect y="650" width="1200" height="150" fill="#2a1a2a"/>
  
  <!-- Four-poster bed -->
  <rect x="400" y="400" width="300" height="200" fill="#3a2a1a"/>
  <rect x="380" y="380" width="340" height="20" fill="#4a3a2a"/>
  
  <!-- Bed posts -->
  <rect x="390" y="300" width="15" height="100" fill="#5a4a3a"/>
  <rect x="710" y="300" width="15" height="100" fill="#5a4a3a"/>
  <rect x="390" y="580" width="15" height="70" fill="#5a4a3a"/>
  <rect x="710" y="580" width="15" height="70" fill="#5a4a3a"/>
  
  <!-- Bed canopy -->
  <rect x="380" y="290" width="350" height="10" fill="#4a2a3a"/>
  <rect x="390" y="300" width="330" height="80" fill="#6a2a4a" opacity="0.7"/>
  
  <!-- Pillows and bedding -->
  <ellipse cx="450" cy="420" rx="30" ry="15" fill="#f4f4f4" opacity="0.9"/>
  <ellipse cx="550" cy="420" rx="30" ry="15" fill="#f4f4f4" opacity="0.9"/>
  <ellipse cx="650" cy="420" rx="30" ry="15" fill="#f4f4f4" opacity="0.9"/>
  
  <!-- Bedside table -->
  <rect x="300" y="500" width="60" height="80" fill="#4a3a2a"/>
  <rect x="280" y="480" width="100" height="10" fill="#5a4a3a"/>
  
  <!-- Oil lamp on table -->
  <rect x="320" y="460" width="8" height="20" fill="#8a7a5a"/>
  <ellipse cx="324" cy="455" rx="12" ry="8" fill="#6a5a4a"/>
  <ellipse cx="324" cy="450" rx="6" ry="4" fill="#ffcc88"/>
  <circle cx="324" cy="450" r="40" fill="url(#softGlow)"/>
  
  <!-- Wardrobe -->
  <rect x="900" y="300" width="120" height="300" fill="#3a2a1a"/>
  <rect x="910" y="320" width="45" height="260" fill="#2a1a0a"/>
  <rect x="965" y="320" width="45" height="260" fill="#2a1a0a"/>
  
  <!-- Wardrobe handles -->
  <circle cx="945" cy="450" r="3" fill="#8a7a5a"/>
  <circle cx="975" cy="450" r="3" fill="#8a7a5a"/>
  
  <!-- Window with curtains -->
  <rect x="100" y="200" width="150" height="200" fill="#1a1a3a"/>
  <rect x="80" y="200" width="30" height="200" fill="#6a2a4a"/>
  <rect x="250" y="200" width="30" height="200" fill="#6a2a4a"/>
  
  <!-- Moonlight through window -->
  <polygon points="120,250 180,270 160,380 140,380" fill="#ffffff" opacity="0.1"/>
  
  <!-- Vanity mirror -->
  <rect x="750" y="480" width="80" height="120" fill="#4a3a2a"/>
  <ellipse cx="790" cy="520" rx="30" ry="40" fill="#5a5a6a" opacity="0.7"/>
  
  <!-- Carpet -->
  <ellipse cx="600" cy="650" rx="200" ry="80" fill="#4a2a2a"/>
</svg>