<svg width="1200" height="800" viewBox="0 0 1200 800" xmlns="http://www.w3.org/2000/svg">
  <defs>
    <linearGradient id="diningWalls" x1="0%" y1="0%" x2="0%" y2="100%">
      <stop offset="0%" style="stop-color:#4a2a2a;stop-opacity:1" />
      <stop offset="100%" style="stop-color:#2a1a1a;stop-opacity:1" />
    </linearGradient>
    <radialGradient id="candleFlame" cx="50%" cy="30%" r="40%">
      <stop offset="0%" style="stop-color:#ffaa00;stop-opacity:0.9" />
      <stop offset="100%" style="stop-color:#ffaa00;stop-opacity:0" />
    </radialGradient>
  </defs>
  
  <!-- Background -->
  <rect width="1200" height="800" fill="url(#diningWalls)"/>
  
  <!-- Floor -->
  <rect y="650" width="1200" height="150" fill="#1a0a0a"/>
  
  <!-- Long dining table -->
  <ellipse cx="600" cy="500" rx="400" ry="100" fill="#3a2a1a"/>
  <rect x="200" y="450" width="800" height="100" fill="#3a2a1a"/>
  
  <!-- Table setting -->
  <circle cx="350" cy="480" r="15" fill="#8a8a9a"/>
  <circle cx="500" cy="480" r="15" fill="#8a8a9a"/>
  <circle cx="650" cy="480" r="15" fill="#8a8a9a"/>
  <circle cx="800" cy="480" r="15" fill="#8a8a9a"/>
  
  <!-- Wine glasses -->
  <rect x="370" y="470" width="4" height="15" fill="#aa4a4a"/>
  <ellipse cx="372" cy="467" rx="6" ry="3" fill="#aa4a4a"/>
  
  <rect x="520" y="470" width="4" height="15" fill="#aa4a4a"/>
  <ellipse cx="522" cy="467" rx="6" ry="3" fill="#aa4a4a"/>
  
  <!-- Candelabra centerpiece -->
  <rect x="580" y="420" width="40" height="60" fill="#8a7a5a"/>
  <rect x="585" y="400" width="6" height="30" fill="#f4f4f4"/>
  <rect x="595" y="405" width="6" height="25" fill="#f4f4f4"/>
  <rect x="605" y="400" width="6" height="30" fill="#f4f4f4"/>
  
  <!-- Candle flames -->
  <ellipse cx="588" cy="395" rx="3" ry="6" fill="#ffaa00"/>
  <ellipse cx="598" cy="400" rx="3" ry="6" fill="#ffaa00"/>
  <ellipse cx="608" cy="395" rx="3" ry="6" fill="#ffaa00"/>
  
  <!-- Candlelight glow -->
  <circle cx="600" cy="400" r="80" fill="url(#candleFlame)"/>
  
  <!-- Chairs -->
  <rect x="280" y="580" width="40" height="70" fill="#2a1a0a"/>
  <rect x="290" y="540" width="20" height="40" fill="#2a1a0a"/>
  
  <rect x="430" y="580" width="40" height="70" fill="#2a1a0a"/>
  <rect x="440" y="540" width="20" height="40" fill="#2a1a0a"/>
  
  <rect x="730" y="580" width="40" height="70" fill="#2a1a0a"/>
  <rect x="740" y="540" width="20" height="40" fill="#2a1a0a"/>
  
  <rect x="880" y="580" width="40" height="70" fill="#2a1a0a"/>
  <rect x="890" y="540" width="20" height="40" fill="#2a1a0a"/>
  
  <!-- Gothic windows -->
  <path d="M100 200 Q150 150 200 200 L200 400 L100 400 Z" fill="#1a1a3a"/>
  <path d="M1000 200 Q1050 150 1100 200 L1100 400 L1000 400 Z" fill="#1a1a3a"/>
  
  <!-- Wall sconces -->
  <rect x="50" y="300" width="20" height="40" fill="#6a5a4a"/>
  <ellipse cx="60" cy="295" rx="8" ry="4" fill="#ffaa00"/>
  
  <rect x="1130" y="300" width="20" height="40" fill="#6a5a4a"/>
  <ellipse cx="1140" cy="295" rx="8" ry="4" fill="#ffaa00"/>
  
  <!-- Tapestries -->
  <rect x="300" y="200" width="60" height="100" fill="#6a2a4a"/>
  <rect x="840" y="200" width="60" height="100" fill="#4a2a6a"/>
</svg>