<svg width="1200" height="800" viewBox="0 0 1200 800" xmlns="http://www.w3.org/2000/svg">
  <defs>
    <linearGradient id="musicRoomWalls" x1="0%" y1="0%" x2="0%" y2="100%">
      <stop offset="0%" style="stop-color:#4a3a5a;stop-opacity:1" />
      <stop offset="100%" style="stop-color:#2a1a3a;stop-opacity:1" />
    </linearGradient>
    <radialGradient id="candleGlow" cx="50%" cy="30%" r="20%">
      <stop offset="0%" style="stop-color:#ffaa44;stop-opacity:0.8" />
      <stop offset="100%" style="stop-color:#ffaa44;stop-opacity:0" />
    </radialGradient>
  </defs>
  
  <!-- Background -->
  <rect width="1200" height="800" fill="url(#musicRoomWalls)"/>
  
  <!-- Floor -->
  <rect y="650" width="1200" height="150" fill="#1a1a2a"/>
  
  <!-- Grand piano -->
  <ellipse cx="400" cy="500" rx="180" ry="120" fill="#1a1a1a"/>
  <rect x="220" y="450" width="360" height="100" fill="#1a1a1a"/>
  <rect x="240" y="430" width="320" height="20" fill="#f4f4f4"/>
  
  <!-- Piano keys -->
  <rect x="250" y="435" width="12" height="15" fill="#f4f4f4"/>
  <rect x="265" y="435" width="12" height="15" fill="#f4f4f4"/>
  <rect x="280" y="435" width="12" height="15" fill="#f4f4f4"/>
  <rect x="295" y="435" width="12" height="15" fill="#f4f4f4"/>
  <rect x="310" y="435" width="12" height="15" fill="#f4f4f4"/>
  <rect x="325" y="435" width="12" height="15" fill="#f4f4f4"/>
  <rect x="340" y="435" width="12" height="15" fill="#f4f4f4"/>
  
  <!-- Black keys -->
  <rect x="258" y="435" width="6" height="10" fill="#1a1a1a"/>
  <rect x="273" y="435" width="6" height="10" fill="#1a1a1a"/>
  <rect x="303" y="435" width="6" height="10" fill="#1a1a1a"/>
  <rect x="318" y="435" width="6" height="10" fill="#1a1a1a"/>
  <rect x="333" y="435" width="6" height="10" fill="#1a1a1a"/>
  
  <!-- Piano stool -->
  <circle cx="300" cy="580" r="25" fill="#4a3a2a"/>
  <rect x="290" y="580" width="20" height="40" fill="#3a2a1a"/>
  
  <!-- Violin on stand -->
  <ellipse cx="700" cy="400" rx="15" ry="40" fill="#8b4513"/>
  <rect x="695" y="360" width="10" height="80" fill="#654321"/>
  <rect x="690" y="380" width="20" height="3" fill="#654321"/>
  <rect x="720" y="420" width="30" height="60" fill="#4a3a2a"/>
  
  <!-- Sheet music stand -->
  <rect x="580" y="350" width="60" height="80" fill="#5a5a5a"/>
  <rect x="590" y="320" width="40" height="30" fill="#f4f4f4"/>
  <rect x="605" y="430" width="10" height="120" fill="#4a4a4a"/>
  
  <!-- Candles with glow -->
  <rect x="180" y="300" width="8" height="40" fill="#f4f4f4"/>
  <ellipse cx="184" cy="295" rx="4" ry="8" fill="#ffaa44"/>
  <circle cx="184" cy="295" r="30" fill="url(#candleGlow)"/>
  
  <rect x="950" y="250" width="8" height="40" fill="#f4f4f4"/>
  <ellipse cx="954" cy="245" rx="4" ry="8" fill="#ffaa44"/>
  <circle cx="954" cy="245" r="30" fill="url(#candleGlow)"/>
  
  <!-- Music notes floating -->
  <circle cx="500" cy="200" r="8" fill="#8a4a8a" opacity="0.6"/>
  <ellipse cx="508" cy="195" rx="3" ry="8" fill="#8a4a8a" opacity="0.6"/>
  
  <circle cx="550" cy="180" r="6" fill="#6a3a6a" opacity="0.5"/>
  <ellipse cx="556" cy="177" rx="2" ry="6" fill="#6a3a6a" opacity="0.5"/>
  
  <!-- Window with curtains -->
  <rect x="800" y="150" width="200" height="300" fill="#1a1a3a"/>
  <rect x="780" y="150" width="40" height="300" fill="#6a2a4a"/>
  <rect x="1000" y="150" width="40" height="300" fill="#6a2a4a"/>
  
  <!-- Gothic arched window frame -->
  <path d="M820 150 Q900 100 980 150 L980 450 L820 450 Z" stroke="#4a4a6a" stroke-width="3" fill="none"/>
</svg>